<?xml version="1.0" standalone="no"?>
<!DOCTYPE svg PUBLIC "-//W3C//DTD SVG 20010904//EN"
 "http://www.w3.org/TR/2001/REC-SVG-20010904/DTD/svg10.dtd">
<svg version="1.0" xmlns="http://www.w3.org/2000/svg"
 width="2941.000000pt" height="2941.000000pt" viewBox="0 0 2941.000000 2941.000000"
 preserveAspectRatio="xMidYMid meet">
<metadata>
Created by potrace 1.14, written by Peter Selinger 2001-2017
</metadata>
<g transform="translate(0.000000,2941.000000) scale(0.100000,-0.100000)"
fill="#000000" stroke="none">
<path d="M4905 29199 c-203 -115 -875 -493 -1492 -841 l-1123 -631 0 -12984
c0 -12811 0 -12983 19 -12983 22 0 54 35 677 740 564 639 2803 3170 3179 3594
264 299 868 982 1310 1482 82 93 217 246 300 339 83 94 754 852 1491 1685 737
833 1996 2258 2799 3165 803 908 2218 2507 3144 3555 927 1048 1809 2045 1960
2215 150 171 650 735 1110 1255 459 520 903 1022 986 1115 83 94 549 620 1035
1170 486 550 1055 1194 1265 1430 209 237 390 442 401 457 23 29 69 52 85 42
5 -3 9 -530 9 -1308 0 -716 3 -1870 7 -2564 6 -1240 7 -1261 26 -1266 19 -5
19 -5 -2 -32 l-21 -27 0 -1841 c0 -1012 3 -2870 7 -4127 l6 -2286 964 -1084
c529 -596 970 -1085 978 -1087 13 -3 15 1125 15 10513 0 8853 -2 10516 -14
10513 -7 -2 -119 -122 -248 -268 -585 -662 -2743 -3102 -3294 -3725 -335 -379
-817 -924 -1070 -1210 -252 -286 -822 -929 -1264 -1430 -443 -500 -1115 -1261
-1495 -1690 -379 -429 -1238 -1401 -1909 -2160 -671 -759 -1477 -1670 -1791
-2025 -314 -355 -1086 -1228 -1716 -1940 -2266 -2563 -2690 -3043 -3143 -3555
-404 -456 -1121 -1268 -2325 -2630 -461 -521 -455 -515 -472 -498 -7 7 -7
2988 1 9434 13 12613 14 11699 -7 11698 -10 0 -184 -95 -388 -210z"/>
<path d="M5346 27228 c-3 -1201 -9 -5939 -12 -10531 -6 -7368 -5 -8347 8
-8347 8 0 386 419 839 932 453 512 902 1020 997 1127 96 108 176 202 179 209
3 7 -3 19 -14 27 -19 13 -19 32 -21 712 -1 384 -7 1999 -13 3588 -28 7377 -34
9133 -31 9148 5 26 33 20 73 -16 20 -18 103 -108 186 -202 144 -165 1015
-1152 3123 -3540 558 -632 1378 -1561 1822 -2065 445 -503 814 -916 821 -918
7 -1 105 102 218 230 113 128 416 471 673 761 324 367 466 534 464 548 -2 10
-505 587 -1118 1281 -613 694 -1288 1458 -1500 1698 -211 239 -517 586 -680
770 -163 184 -467 529 -676 765 -209 237 -532 603 -719 815 -777 879 -2416
2735 -2769 3135 -209 237 -545 617 -747 845 -935 1059 -1065 1205 -1080 1208
-15 3 -17 -186 -23 -2180z"/>
<path d="M24080 21353 c0 -4427 -3 -9166 -7 -10533 -4 -1821 -3 -2491 5 -2506
9 -16 8 -26 -4 -43 -18 -25 -34 -19 -34 14 0 18 -235 288 -882 1017 -1647
1853 -4631 5213 -4691 5281 -33 37 -68 67 -78 67 -21 0 -1332 -1471 -1337
-1500 -2 -13 45 -74 150 -192 85 -95 293 -330 463 -523 170 -192 427 -483 570
-645 377 -426 1284 -1452 1679 -1900 187 -212 390 -441 451 -510 61 -69 284
-321 495 -560 212 -239 520 -588 685 -775 397 -449 1067 -1207 1489 -1685 187
-212 476 -538 641 -725 165 -187 490 -554 721 -815 393 -445 787 -890 1714
-1940 212 -240 517 -585 679 -768 161 -182 300 -332 307 -332 12 0 14 1948 12
12977 l-3 12977 -340 189 c-825 457 -1227 680 -1922 1066 -408 226 -747 411
-752 411 -8 0 -11 -2424 -11 -8047z"/>
<path d="M7314 23018 c3 -563 9 -1723 12 -2580 6 -1462 7 -1557 24 -1565 9 -4
237 -258 506 -563 269 -305 922 -1045 1450 -1645 528 -599 1121 -1272 1318
-1495 239 -272 364 -406 379 -408 18 -2 224 226 1142 1264 616 697 1121 1276
1123 1288 2 16 -188 237 -730 851 -821 930 -3079 3488 -4347 4925 -626 709
-840 946 -858 948 l-25 4 6 -1024z"/>
<path d="M21860 23797 c-68 -78 -348 -394 -620 -702 -273 -308 -1204 -1361
-2070 -2340 -866 -979 -1745 -1973 -1955 -2210 -209 -236 -727 -821 -1150
-1300 -423 -478 -819 -926 -880 -995 -61 -69 -871 -984 -1800 -2035 -1866
-2110 -3609 -4081 -5125 -5794 -547 -619 -1119 -1265 -1269 -1435 -151 -171
-359 -405 -461 -521 -581 -656 -2535 -2866 -3263 -3690 -467 -528 -873 -986
-903 -1018 -30 -33 -54 -64 -54 -71 0 -7 66 -49 148 -93 152 -83 1992 -1087
2535 -1384 170 -93 318 -169 330 -168 16 0 100 89 303 317 154 174 899 1012
1654 1862 756 850 2114 2378 3019 3395 905 1018 1988 2235 2406 2705 418 470
1449 1629 2290 2575 841 946 1872 2105 2290 2575 418 470 1537 1728 2486 2795
949 1067 1845 2075 1992 2240 l267 300 0 1981 c0 1089 -3 2245 -7 2567 -6 527
-8 587 -22 587 -9 0 -72 -65 -141 -143z"/>
<path d="M15898 11868 c-608 -684 -1120 -1260 -1138 -1281 -24 -27 -31 -43
-24 -52 5 -7 287 -327 628 -711 340 -385 700 -791 800 -904 217 -245 1594
-1802 2025 -2290 168 -190 355 -401 416 -470 61 -69 457 -516 880 -995 423
-478 1165 -1318 1649 -1865 484 -547 1121 -1267 1415 -1600 294 -333 585 -661
646 -730 163 -183 475 -536 679 -768 143 -162 183 -202 203 -202 15 0 473 249
1087 589 583 324 1259 699 1501 833 322 179 441 250 443 264 2 13 -51 81 -165
209 -92 105 -389 440 -658 745 -457 517 -1657 1874 -3469 3925 -418 473 -896
1013 -1061 1200 -165 187 -507 574 -760 860 -253 286 -818 925 -1255 1420
-438 495 -917 1037 -1065 1205 -269 304 -680 769 -1250 1414 -165 187 -320
363 -345 392 -25 29 -52 53 -61 53 -10 1 -478 -519 -1121 -1241z"/>
</g>
</svg>
